<svg width="151" height="230" viewBox="0 0 151 230" fill="none" xmlns="http://www.w3.org/2000/svg">
<path fill-rule="evenodd" clip-rule="evenodd" d="M81.4801 17.9771C80.2943 13.6968 75.7621 11.8291 71.6802 11.5327C60.6284 10.3838 49.3791 16.5447 44.4795 26.5349C40.5575 34.1207 40.4346 42.0895 48.8652 46.4208C49.3257 46.6746 49.8065 46.946 50.2975 47.1923C50.7241 47.5889 51.1634 47.9701 51.643 48.29C56.2337 51.3088 61.8683 52.6145 67.3287 52.3313C75.3908 52.1688 78.2689 46.6981 80.0302 39.6825C81.8878 32.698 82.9266 25.1192 81.4801 17.9771Z" fill="white"/>
<path fill-rule="evenodd" clip-rule="evenodd" d="M86.7717 58.3224C86.3953 57.184 85.9234 56.0801 85.4825 54.9647C85.3893 54.4088 85.3271 53.8482 85.3111 53.283C85.25 51.2641 85.6277 49.2279 86.0511 47.2618C86.9121 43.2665 87.8249 39.3126 88.283 35.2436C89.1014 27.9655 88.6145 20.3973 85.3041 13.7533C82.4357 7.99804 77.5747 3.29136 71.2957 1.52793C69.4395 1.00639 67.5291 0.718737 65.6055 0.603861C65.3674 0.565991 65.1296 0.528927 64.8929 0.493244C62.2174 0.0899128 59.509 -0.111062 56.8047 0.0628631C52.3201 0.351434 47.8775 1.64016 44.1425 4.18907C40.3821 6.75559 37.7102 10.3543 36.467 14.7436C35.1737 19.3099 35.2834 24.2551 33.05 28.5362C32.3902 29.801 31.62 31.0034 30.8855 32.2258C28.9366 34.4002 26.8208 36.8176 26.3571 39.8075C25.785 43.5025 27.911 46.6253 29.9231 49.5087C31.7418 52.1124 34.2096 55.7083 32.338 58.914C31.4552 60.4265 30.0405 61.558 28.9781 62.937C27.8765 64.3689 27.0167 66.0126 26.5724 67.7691C25.7378 71.068 26.5056 74.5063 28.7375 77.0847C29.9001 78.4268 31.393 79.3143 33.0091 80.0061C34.6632 80.7128 36.2793 81.3839 37.6467 82.5867C38.2718 83.1358 38.8439 83.7378 39.3849 84.3686C39.889 85.157 40.4761 85.8937 41.1379 86.5682C41.8665 87.3107 43.2939 86.2943 42.6251 85.4206C42.5756 85.3562 42.5273 85.2929 42.4778 85.2284C41.9886 84.5907 41.4971 83.953 40.9825 83.3361C39.4482 80.9049 38.8577 77.9284 39.6208 75.0887C39.8188 74.3509 40.0974 73.651 40.4439 72.9903C40.5175 73.1826 40.5981 73.3725 40.6833 73.5601C41.0148 74.2876 41.4799 75.1496 42.0714 75.8864C42.0945 76.3916 42.1705 76.8924 42.3178 77.3828C43.2294 80.4227 46.2774 81.9226 49.0261 83.0897C49.2955 83.2048 49.5614 83.3153 49.8227 83.4247C50.5409 83.725 51.3006 82.7018 50.8529 82.0847C50.7355 81.9226 50.6215 81.7568 50.5133 81.5888C49.2241 79.5928 48.6106 77.2055 48.9582 74.8274C49.3243 72.3124 50.8068 70.2312 52.279 68.2342C53.7248 66.2704 55.2775 64.2664 55.9244 61.8711C56.6404 59.2248 55.9889 56.5866 54.8839 54.1509C53.8721 51.9221 52.5243 49.8678 51.3941 47.7004C51.7811 48.0863 52.1804 48.4596 52.5918 48.8197C53.0544 49.2246 53.5297 49.688 54.0779 49.9735C54.4833 50.1845 54.8894 49.6794 54.5684 49.3379C54.1464 48.8892 53.6064 48.5425 53.1378 48.1421C52.688 47.7577 52.2512 47.358 51.8252 46.9474C51.3006 46.4419 50.8016 45.9127 50.3205 45.3674C49.9355 44.3866 49.6182 43.3794 49.3599 42.3572C49.0089 40.9736 48.6843 39.5014 48.7096 38.0672C48.7349 36.5961 49.4992 35.5659 50.5168 34.5783C50.9477 34.1601 51.3828 33.7469 51.8171 33.3329C52.7421 32.6539 53.6146 31.8953 54.4621 31.1388C55.9723 29.7908 57.433 28.3659 58.828 26.8994C59.2022 26.5059 59.5733 26.1081 59.9398 25.7057C61.2204 24.3917 62.4416 23.0196 63.5928 21.6001C64.737 21.1834 65.8362 20.6321 66.8676 19.9829C66.4187 20.4375 65.9651 20.8865 65.5139 21.3388C64.509 22.3472 63.4651 23.3601 62.3002 24.1818C62.1805 24.2671 62.253 24.4478 62.4004 24.4191C63.8817 24.1232 65.2676 23.6306 66.5614 22.8456C67.877 22.0467 69.0362 20.9613 70.1182 19.8724C70.7305 19.5961 71.3211 19.2404 71.8609 18.8905C71.8896 18.8721 71.9184 18.8525 71.9472 18.834C71.4154 20.5193 70.6351 22.4277 68.9717 23.0286C68.9176 23.0481 68.9211 23.1379 68.9855 23.1345C70.3868 23.0523 71.513 22.4219 72.4021 21.503C73.1171 20.9884 73.7995 20.4432 74.4506 19.8496C75.0814 19.2745 75.6789 18.6578 76.2464 18.0192C75.4533 19.5903 74.5649 21.1265 73.6888 22.6453C73.6427 22.7259 73.7394 22.8352 73.8223 22.7788C75.672 21.5264 77.0752 19.9104 78.2228 17.9995C78.3922 17.7182 78.5539 17.4322 78.7116 17.1441C78.5926 17.595 78.4627 18.043 78.3235 18.4887C78.0715 19.2955 77.8235 20.1041 77.571 20.9104C77.435 21.3452 77.2691 21.77 77.0871 22.1876C76.9568 22.4864 76.7863 22.7847 76.7598 23.1124C76.7581 23.1341 76.7818 23.1484 76.8008 23.1437C77.5384 22.9593 78.2252 22.1181 78.7508 21.597C79.0435 21.3068 79.3177 20.9883 79.5699 20.6524C79.6167 22.587 79.6489 24.5219 79.6063 26.4622C79.527 30.0259 79.2968 33.5884 79.002 37.1405C78.7419 40.2807 78.5497 43.5761 76.7978 46.3053C75.4418 48.4175 73.2433 49.8792 70.8548 50.5873C70.6442 50.6506 70.4324 50.707 70.2195 50.7576C66.7617 51.5783 63.3177 50.6483 60.2605 49.0046C59.3419 48.5107 58.5569 49.8505 59.4432 50.4018C62.7606 52.4669 66.9654 53.1702 70.7202 52.2448C70.6017 56.6797 72.7875 60.8869 74.9618 64.6486C76.1785 66.7539 77.3963 68.8454 78.2563 71.1279C78.9859 73.0663 79.482 75.0772 79.6489 77.1457C79.8469 79.5836 79.6524 82.0354 79.3117 84.4526C79.2933 84.5837 79.2748 84.7162 79.2553 84.8473C79.1793 85.3665 79.6455 85.8015 80.1508 85.5357C82.385 84.3617 83.3484 81.8591 83.9343 79.5456C84.4822 77.3782 84.854 75.1681 85.0612 72.9431C85.3651 73.7823 85.6114 74.6421 85.8025 75.5191C85.8291 75.6447 85.8543 75.7701 85.8796 75.8956C86.0247 76.6288 87.1343 76.577 87.3115 75.8956C87.3438 75.7724 87.3749 75.6493 87.4036 75.525C88.3187 71.8243 88.5651 67.9648 88.0816 64.1812C87.8272 62.1911 87.4025 60.2274 86.7717 58.3224Z" fill="black"/>
<path fill-rule="evenodd" clip-rule="evenodd" d="M83.1252 149.099C83.3829 151.788 82.856 154.356 81.6008 156.527L81.1924 157.233L81.9697 157.505C83.3843 158 84.9575 158.24 86.7792 158.24C88.6539 158.24 90.6034 157.979 92.1699 157.769L93.1728 157.635L92.6802 156.764C92.284 156.064 92.2107 155.215 92.133 154.317C92.112 154.076 92.0905 153.826 92.0622 153.579C90.5779 140.312 88.7016 126.872 86.8872 113.874C86.4097 110.454 85.916 106.917 85.437 103.438L84.0631 103.491C83.6935 109.93 83.3348 116.479 82.988 122.811C82.8355 125.596 82.6829 128.381 82.5291 131.165C81.9808 138.205 82.1702 143.905 83.1252 149.099ZM83.6859 228.657C81.6682 228.657 79.6466 228.448 77.6775 228.033C71.5155 226.74 65.9173 223.688 61.1538 220.929C60.9106 220.791 60.6638 220.653 60.4104 220.511C58.5455 219.467 56.2246 218.17 54.7701 216.586C53.1745 214.848 52.8999 213.117 53.906 211.137L54.0652 210.824L53.8989 210.514C52.8571 208.576 52.9345 206.176 54.0872 204.681L55.0559 203.424L53.4632 203.593C51.8573 203.763 50.2386 203.994 48.6732 204.217C46.9364 204.465 45.1401 204.721 43.3712 204.893L42.8796 204.941L42.7665 205.414C42.7036 205.678 42.6259 205.838 42.0802 205.838C41.607 205.838 40.971 205.699 40.298 205.553C39.4626 205.37 38.5158 205.164 37.6028 205.164C37.2012 205.164 36.84 205.202 36.4983 205.282L36.2995 205.328L36.1581 205.473C36.0676 205.565 35.9136 205.622 35.7562 205.622C35.6372 205.622 35.5268 205.589 35.453 205.531L35.23 205.358L34.9469 205.389C30.0154 205.93 25.7631 206.88 21.9473 208.293L21.93 208.3L21.8473 208.335C20.4675 208.93 19.041 209.546 17.7418 209.546C16.7921 209.546 16.0208 209.224 15.3146 208.53L15.115 208.334L14.8334 208.331C11.9767 208.305 10.6714 204.973 10.4909 202.741L10.4682 202.46L10.2505 202.277C5.2719 198.099 2.33279 192.361 1.26483 184.735C0.292186 177.789 1.03899 170.464 1.8978 164.216C3.88441 148.023 5.95644 133.507 11.2235 119.74L11.4696 119.096L10.8138 118.861C8.53896 118.043 6.80039 117.068 5.49866 115.879L5.40853 115.796L5.29504 115.75C3.4294 114.983 2.51569 112.154 2.28007 111.305L2.26119 111.237L2.22827 111.174C1.84761 110.443 1.75979 109.428 1.98747 108.387L2.01187 108.275L1.99771 108.161C1.87478 107.172 2.28283 106.139 2.71482 105.045C2.91223 104.545 3.1162 104.029 3.26526 103.514C3.77771 102.044 4.28959 100.548 4.78477 99.1002C5.89578 95.8531 7.04442 92.4953 8.26811 89.2291L8.43547 88.7824L8.06679 88.4745C7.43739 87.9488 7.64757 87.33 8.55519 85.8503C8.76963 85.5007 8.97244 85.17 9.12669 84.8442C10.2901 82.8339 11.5369 80.9042 12.8332 79.1079L12.8599 79.071L12.8812 79.0312C19.5331 66.6079 31.3322 59.7662 46.1051 59.7662L46.4062 59.7668L46.5726 59.6666C49.3414 58.0016 51.3179 55.1449 52.615 50.9331L52.6564 50.7988L52.6404 50.6593C52.596 50.2712 52.5473 49.7622 52.564 49.2683C52.6063 48.0176 53.0965 46.9015 53.9089 46.2061C55.4503 44.8868 57.7903 44.7764 60.055 44.7764L60.3802 44.7769C63.2757 44.7852 65.3198 45.2879 66.8134 46.3592C68.5488 47.6039 69.5078 49.6132 69.7455 52.5018C69.8166 53.3661 69.8141 54.2616 69.8119 55.1275L69.8114 55.3692L69.8405 55.4651C70.0486 56.1516 70.2924 56.8113 70.565 57.426L70.8454 58.0583L71.4831 57.7732C71.8955 57.5889 72.4183 57.4941 73.0818 57.4834C73.2731 57.4791 73.4597 57.477 73.6479 57.477C75.1883 57.477 76.8362 57.6176 78.4299 57.7536C79.6307 57.856 80.8725 57.9622 82.0744 58.0091L82.0909 58.0098C82.0909 58.0098 82.2569 58.0088 82.3313 58.0088C85.2526 58.0088 87.3703 58.4683 88.9958 59.4547C90.7459 60.5167 92.0044 62.2213 92.956 64.819C98.06 79.709 100.158 95.7477 102.009 109.898C103.059 117.297 103.378 124.883 103.688 132.219C104.013 139.963 104.351 147.97 105.544 155.797L105.639 156.416L106.272 156.375C109.061 156.195 112.075 155.807 115.266 155.396C120.114 154.773 125.128 154.128 129.974 154.128C136.751 154.128 141.889 155.461 145.679 158.203C148.321 160.694 149.688 164.066 149.632 167.956C149.553 173.454 146.645 179.532 142.224 183.441L142.208 183.456C136.619 188.735 126.42 193.314 111.89 197.065C98.5299 200.515 84.7102 202.389 77.6615 203.199L75.9169 203.401L77.333 204.424C77.9061 204.838 78.429 205.203 78.9317 205.539L79.2559 205.757L79.6112 205.594C80.6241 205.13 81.2674 205.032 81.629 205.032C81.9498 205.032 82.3367 205.101 82.358 205.434C82.372 205.651 82.2173 205.973 81.8907 206.014L80.1568 206.23L81.5726 207.241C82.5183 207.915 83.9292 208.728 85.5632 209.669C90.9086 212.749 98.9867 217.403 97.5974 221.491L97.5062 221.759L97.6354 222.012C98.0087 222.744 98.0405 223.423 97.7325 224.089C97.073 225.516 95.0097 226.598 93.2574 227.039L93.2274 227.046L93.198 227.056C90.1491 228.119 86.9487 228.657 83.6859 228.657Z" fill="white"/>
<path fill-rule="evenodd" clip-rule="evenodd" d="M77.8203 202.399C78.0309 202.185 78.1196 201.904 77.9227 201.574C77.1619 200.603 75.5836 201.267 74.6019 201.491C74.2312 201.183 73.8629 200.873 73.5084 200.547C73.6316 199.783 72.713 199.274 72.3355 198.685C71.9648 198.251 71.6161 197.757 71.1716 197.393C70.0886 196.549 68.5876 197.121 67.3307 197.081C66.3626 195.85 65.3658 194.657 64.445 193.385C65.5062 191.602 65.5811 189.512 65.2288 187.524C81.5083 181.348 95.5995 169.652 113.206 166.949C113.811 166.848 114.151 166.112 114 165.572C112.772 162.642 95.1229 170.204 92.4847 171.574C84.7036 175.3 77.415 179.943 69.8526 184.041C68.2757 184.879 66.541 185.329 64.8167 185.765C62.167 177.068 57.6847 169.097 54.2477 160.711C54.4709 160.325 54.6609 159.919 54.8221 159.502C54.7081 164.113 59.1927 164.048 59.8119 159.674C59.5564 161.955 61.2807 166.837 63.7693 163.634C64.3529 162.828 64.5601 161.798 64.6589 160.759C64.7868 161.477 64.9319 162.193 65.093 162.905C65.7317 164.319 67.4757 162.6 67.8808 161.864C68.1145 161.822 68.3332 161.715 68.4932 161.585C72.8937 162.196 78.0768 162.161 81.3057 158.687C86.7824 160.787 92.8439 158.905 98.3828 158.066C109.653 156.77 120.969 154.795 132.342 154.946C137.419 155.241 143.409 156.061 146.621 160.393C150.741 166.638 148.412 175.073 143.868 180.479C132.936 194.32 95.4131 200.338 77.8203 202.399ZM78.1276 207.385C78.3266 207.332 78.527 207.283 78.7262 207.236C81.9169 209.893 96.944 216.791 95.801 220.912C95.397 221.424 94.4301 221.54 93.8187 221.706C92.754 221.994 91.6789 222.244 90.5936 222.442C87.085 223.079 83.4513 223.191 79.9473 222.462C78.6582 222.267 77.4945 221.716 76.3204 221.185C72.5266 219.516 68.3482 217.672 64.5726 216.016C59.7761 214.115 51.363 210.368 54.8232 204.044C58.1015 207.732 62.2626 207.41 64.3586 202.826C65.0815 201.436 65.7123 199.561 67.4101 198.998C68.3056 198.393 69.4509 198.267 70.1991 198.942C70.2532 198.858 70.3016 198.739 70.3279 198.635C71.1716 199.836 71.8992 201.1 72.8879 202.198C72.5484 202.215 69.0147 204.832 70.0575 204.833C71.3122 204.186 72.5588 203.648 73.9136 203.299C74.8954 204.287 75.9751 205.206 77.094 206.055C76.0074 206.772 75.0313 207.652 74.2462 208.605C74.1783 208.689 74.2612 208.798 74.3625 208.752C75.5815 208.209 76.835 207.732 78.1276 207.385ZM94.3023 225.202C82.0975 230.684 69.1768 224.579 58.769 218.071C56.3668 216.73 53.2072 214.829 53.6929 211.671C55.4621 214.26 58.3789 215.733 61.1782 217.011C65.8815 219.137 70.6157 221.195 75.3305 223.295C75.7759 224.773 77.9053 224.829 79.1923 225.157C84.9212 226.268 91.0793 225.715 96.4709 223.501C96.1588 224.424 95.138 224.848 94.3023 225.202ZM45.6077 203.855C45.3063 203.893 45.0046 203.929 44.7031 203.962C44.7342 203.564 44.4936 203.165 44.1069 203.042C44.2807 202.196 44.3451 201.321 44.2519 200.463C44.7561 201.765 46.3837 201.37 47.4173 200.995C48.8941 200.593 50.3617 200.162 51.8213 199.701C52.3968 200.771 53.0069 201.824 53.7562 202.792C51.0281 203.035 48.3255 203.516 45.6077 203.855ZM44.4073 199.758C44.3348 199.911 44.2312 200.073 44.2289 200.256C44.1552 199.623 44.0113 198.997 43.7926 198.397C43.9974 198.851 44.2024 199.304 44.4073 199.758ZM42.6853 196.36C41.3432 194.61 38.8626 193.181 36.5697 193.667C36.4224 193.7 36.4188 193.937 36.5697 193.966C39.65 194.385 42.355 196.827 42.4619 199.987C42.7049 201.416 41.7104 202.821 42.0453 204.192C41.9786 204.196 41.9118 204.2 41.8462 204.204C41.822 204.296 41.8 204.378 41.7713 204.449C42.104 204.505 42.2019 205.04 41.8092 205.135C41.5768 205.192 41.334 205.222 41.0865 205.234C39.8307 204.895 38.5058 204.817 37.3053 204.316C36.1174 203.791 36.4143 202.315 35.9954 201.294C35.688 200.116 35.3345 198.943 34.8892 197.812C34.857 197.721 34.7338 197.742 34.7234 197.833C34.4092 200.089 34.4196 202.382 34.4955 204.655C34.0834 204.698 33.6737 204.744 33.2626 204.795C33.2892 204.16 31.3842 196.424 30.3805 198.41C30.8858 200.592 30.9468 202.872 31.0009 205.118C28.0208 205.61 25.0845 206.341 22.2275 207.336C20.2143 207.946 17.82 209.751 15.8656 208.119C14.352 206.868 13.8421 204.684 13.9848 202.825C15.9531 191.831 31.4993 190.546 40.6767 191.36C41.5435 193.359 42.4263 195.353 43.3207 197.342C43.1354 196.999 42.9236 196.671 42.6853 196.36ZM11.3845 202.611C11.2165 200.115 11.6366 197.007 13.4864 195.147C17.72 191.567 23.6479 190.441 28.9382 189.145C31.4025 188.658 33.9004 188.336 36.4086 188.175C37.2984 188.104 38.4287 188.306 39.0571 187.578C39.3806 188.345 39.7086 189.109 40.0367 189.875C29.5045 188.496 7.53079 193.289 13.6844 207.717C12.3812 206.305 11.5179 204.586 11.3845 202.611ZM63.7106 194.358C64.1952 195.569 64.788 196.722 65.5626 197.777C64.6821 198.352 63.9638 199.204 63.4573 200.119C60.2114 208.612 56.7398 204.063 52.4267 199.506C56.0768 198.128 60.9112 197.096 63.7106 194.358ZM9.68097 200.883C1.24025 192.545 -0.397754 178.654 2.72051 167.735C2.99792 163.687 4.41372 159.829 5.68219 155.995C9.72126 144.366 15.0334 133.179 21.4045 122.616C29.3088 124.787 37.1994 127.016 45.1221 129.116C46.2132 129.353 47.3056 129.821 48.4257 129.889C48.8262 130.145 49.2279 130.426 49.6446 130.673C49.038 133.645 49.5974 136.679 49.739 139.669C49.8678 142.023 49.6135 144.328 49.3015 146.657C48.9528 150.045 47.5173 161.064 50.394 163.081C51.3689 163.552 52.2403 162.158 52.6604 162.542C53.0391 162.278 53.3925 161.934 53.6802 161.555C54.791 165.148 56.6062 168.48 57.7274 172.075C59.219 177.358 64.1181 185.912 63.0303 190.951C62.1889 194.063 58.5078 194.734 55.8511 195.752C52.7813 196.82 49.6769 197.801 46.5218 198.596C44.9817 195.327 43.5095 192.028 42.0649 188.717C35.4624 173.435 29.615 157.836 24.3892 142.051C24.2914 141.701 23.0897 137.905 22.8698 138.964C22.8514 138.855 22.7144 138.573 22.6626 138.814C23.5489 142.52 24.4478 146.226 25.4206 149.912C23.031 149.577 20.4618 149.447 18.2748 150.618C18.162 150.678 18.2449 150.827 18.3564 150.809C20.9463 150.36 23.4442 151.208 25.9316 151.817C29.4251 163.709 33.9327 175.299 38.7038 186.744C37.2281 186.273 35.5154 186.793 33.9752 186.83C29.1247 187.332 24.3294 188.393 19.747 190.044C13.9871 191.911 9.91464 194.347 9.68097 200.883ZM5.03403 114.105C3.61604 112.578 2.5017 110.628 2.71706 108.558C3.56884 107.422 3.85085 105.941 4.34696 104.627C6.2865 99.1328 8.08675 93.5963 10.1978 88.1608C14.6881 89.5418 19.1057 91.1983 23.2727 93.3741C24.0393 93.7654 24.7978 94.1713 25.5472 94.5919C26.3322 95.0318 27.1886 95.7961 28.1302 95.5772C27.1011 97.0342 24.982 98.5501 24.624 100.234C24.5469 100.767 24.9245 101.261 25.5046 101.142C34.5853 107.593 43.963 113.907 52.5464 121.092C58.974 126.181 63.9086 130.308 66.1128 138.564C67.5989 143.913 67.6033 149.503 67.3848 155.002C67.3422 156.071 67.341 157.165 67.2547 158.241C67.3836 159.046 67.1384 160.685 66.2337 160.714C66.2544 160.909 66.3189 161.089 66.4213 161.248C66.3925 161.287 66.3626 161.323 66.3316 161.361C66.2867 161.141 66.2429 160.921 66.2015 160.701C65.497 157.581 65.4026 153.961 65.5201 150.639C65.5694 149.686 64.1088 149.709 64.0271 150.639C63.8073 153.15 63.5874 155.661 63.3676 158.172C63.1039 159.799 63.5195 161.927 62.2188 163.164C60.8962 161.942 61.3336 159.531 61.3981 157.954C61.5016 155.381 61.6133 152.81 61.7089 150.237C61.7388 149.422 60.3886 149.212 60.2354 150.041C59.8016 152.404 59.332 154.76 58.8265 157.109C58.5216 158.018 58.3121 162.093 56.7881 161.385C55.8799 160.764 56.5349 157.129 56.4152 155.925C56.4716 153.541 56.5048 151.161 56.6799 148.784C56.7513 147.824 55.1893 147.62 54.9752 148.557C54.6276 150.073 54.2949 151.589 53.9933 153.115C53.3315 155.688 53.572 159.175 51.1824 160.885C50.2466 154.202 51.5933 147.566 51.7821 140.907C51.6693 138.749 51.2987 136.613 50.9718 134.481C50.6104 132.124 50.3997 129.558 51.2458 127.285C51.0144 126.267 50.105 129.021 50.0199 129.25C49.335 127.901 47.6671 127.796 46.348 127.376C43.4162 126.427 40.4131 125.711 37.4468 124.868C29.5804 122.683 21.7048 120.532 13.8271 118.386C10.6801 117.515 7.36734 116.484 5.03403 114.105ZM83.8069 149.652C82.7215 143.769 82.7514 137.807 83.2153 131.859C83.7252 122.634 84.2202 113.407 84.7497 104.183C87.0483 120.878 89.4989 137.553 91.3727 154.301C91.5063 155.466 91.4857 156.7 92.0739 157.74C88.8233 158.175 85.3585 158.614 82.1978 157.509C83.5848 155.11 84.074 152.38 83.8069 149.652ZM100.231 108.212C102.689 124.034 101.287 140.135 103.67 155.939C100.364 156.31 97.0821 156.859 93.8095 157.462C94.1676 155.51 93.4885 153.494 93.3711 151.528C91.5937 137.504 89.6313 123.49 87.0311 109.589C86.3932 106.262 85.7488 102.949 85.0098 99.6409C85.1214 97.6375 85.2193 95.6339 85.2837 93.6292C88.8923 91.3605 92.9613 89.8921 97.1696 89.1517C98.3067 95.4876 99.4429 101.819 100.231 108.212ZM71.783 58.4906C71.6391 58.2445 71.5021 57.9928 71.3709 57.7377C71.8152 57.7547 72.248 57.7706 72.6854 57.8431C72.6658 58.5472 72.705 59.257 72.713 59.9668C72.4942 59.4475 72.0661 58.9736 71.783 58.4906ZM146.005 157.646C135.509 150.013 118.268 154.876 106.108 155.66C103.79 140.459 104.736 125.009 102.576 109.783C100.586 94.5715 98.4876 79.148 93.4897 64.5736C91.427 58.9384 87.8587 57.2648 81.9837 57.3102C79.0024 57.1935 75.8497 56.7161 72.9524 56.784C72.3171 56.7943 71.6529 56.8782 71.0797 57.1345C70.2739 55.3181 69.8365 53.3679 69.6155 51.4029C69.6017 51.2782 69.4429 51.2556 69.3957 51.3746C68.7142 53.0856 68.6417 54.953 69.0123 56.7444C69.2806 58.028 70.8771 63.0792 72.7314 61.1029C72.8787 65.2471 71.9682 70.1963 67.9085 72.3472C60.8145 75.4403 51.0085 72.6238 46.8993 66.0589C46.1051 64.7471 45.4202 63.3512 44.5408 62.0916C50.6679 60.3568 54.1072 53.0153 52.6639 47.4243C51.7718 51.7726 50.1452 56.6311 46.0948 59.0666C31.345 59.0337 19.0817 65.7516 12.1523 78.6909C10.7963 80.5698 9.54285 82.5221 8.39409 84.5087C7.77585 85.8376 5.96535 87.6857 7.50202 88.9692C5.72708 93.7064 4.15243 98.5093 2.488 103.284C2.03091 104.875 0.98575 106.544 1.19421 108.216C0.9686 109.247 0.97896 110.466 1.49579 111.457C1.98614 113.223 3.08643 115.6 4.91098 116.349C6.45916 117.763 8.41711 118.737 10.4591 119.471C5.01331 133.702 2.94037 149.051 1.09522 164.089C-0.71326 177.243 -1.64666 193.245 9.68443 202.752C9.90428 205.473 11.518 208.939 14.7088 208.967C16.9187 211.138 19.6123 209.947 22.0721 208.886C26.224 207.349 30.5785 206.496 34.9053 206.021C35.3692 206.383 36.1243 206.323 36.5375 205.901C39.1585 205.297 42.7912 207.744 43.3207 205.527C46.7002 205.199 50.0429 204.584 53.419 204.226C51.9961 206.072 52.0987 208.795 53.1703 210.788C50.4412 216.158 56.7985 219.266 60.6856 221.469C65.9332 224.508 71.4135 227.391 77.415 228.652C82.6915 229.761 88.2189 229.424 93.31 227.651C95.9852 226.979 99.7215 224.771 98.1341 221.661C100.146 215.742 86.0158 209.61 81.8593 206.646C83.5583 206.434 83.6205 202.907 79.2015 204.934C78.6675 204.576 78.1426 204.208 77.6234 203.832C95.497 201.778 129.631 196.126 142.567 183.908C149.673 177.625 153.774 164.917 146.005 157.646Z" fill="black"/>
<path fill-rule="evenodd" clip-rule="evenodd" d="M77.6621 27.8311C80.3163 27.8311 81.8311 28.4 82.3861 28.4443L82.4028 28.4455C82.6336 28.4602 82.8408 28.4794 83.0581 28.5632C83.8571 28.8699 83.9873 29.7051 83.5209 30.2315C83.4882 31.3207 83.632 32.5933 83.3853 33.686C83.0811 38.2925 80.9075 39.07 79.6721 39.3537C79.0517 39.4962 78.3166 39.5528 77.6578 39.4025C76.5337 39.3607 75.4224 39.01 74.4717 38.3993C73.1477 37.5481 72.1642 36.2398 71.8449 34.6872C71.6937 33.9471 71.6231 33.1767 71.7054 32.4245L71.7176 32.3208C71.2872 32.1156 70.7884 32.0768 70.2743 32.0587C70.0287 32.05 69.7866 32.0422 69.5515 32.0526C69.3216 32.0782 69.0944 32.1122 68.8667 32.1586C68.6179 32.2334 68.3829 32.3569 68.166 32.5525L68.1511 32.8379C68.1104 33.5509 68.0164 34.266 67.8715 34.9656C67.6576 35.9977 67.3136 36.9835 66.5814 37.7156C66.3335 38.0846 66.0268 38.4139 65.6545 38.6991C64.3019 39.737 62.4643 40.1181 60.7779 39.9746C57.3541 39.6834 55.375 36.9744 54.919 35.8165L54.8917 35.7464C54.5623 34.8856 54.2997 33.7687 53.2587 33.5837L53.0373 33.5441C52.5622 33.4552 52.1238 33.3314 51.8452 32.8695C51.7231 32.6678 51.6604 32.4422 51.645 32.2123C51.4824 32.2247 51.3201 32.2366 51.1584 32.2481C49.8683 32.5201 42.1303 32.7506 41.5126 32.7506C41.5126 32.7506 40.3254 33.2487 39.8241 32.8628C39.4767 32.5945 39.3624 32.2368 39.5536 31.8317C39.8422 31.2221 41.1736 30.8554 41.7648 30.7393C41.7648 30.7393 51.305 30.8182 51.9917 30.6885C52.4165 30.2519 53.1765 30.3116 53.8115 30.2426C54.3371 29.869 55.0725 29.6188 55.6534 29.4513C55.7718 29.4066 55.8891 29.3633 56.0031 29.3226C57.068 28.9446 58.175 28.7444 59.2988 28.6369C60.4577 28.5271 61.6199 28.5768 62.772 28.7341C63.2575 28.7997 63.7384 28.8846 64.2161 28.9956C65.0712 29.108 65.9214 29.2931 66.7769 29.5126L66.9481 29.557C67.8489 29.7924 68.7746 29.996 69.7072 29.8364C70.4663 29.7073 71.1965 29.4161 71.8965 29.1012L71.9875 29.06C73.5267 28.3596 75.9304 27.8311 77.6621 27.8311ZM64.1235 30.3921C63.5556 30.2676 63.313 31.1403 63.8827 31.2651C64.2862 31.3535 64.6281 31.5563 64.8591 31.8998L64.8834 31.9371C65.1934 32.4288 65.9773 31.9749 65.6652 31.4801C65.3139 30.9233 64.7682 30.5333 64.1235 30.3921ZM80.7565 29.851C80.5563 29.7104 80.2534 29.8148 80.1371 30.0134C80.0092 30.2321 80.093 30.4756 80.2805 30.6187L80.2996 30.6327C80.4716 30.7535 80.6391 30.9701 80.6601 31.192L80.662 31.2197C80.6845 31.8004 81.59 31.8034 81.5674 31.2197C81.5453 30.6488 81.2136 30.1717 80.7565 29.851Z" fill="black"/>
<path fill-rule="evenodd" clip-rule="evenodd" d="M70.9929 42.7923C71.422 42.0359 72.7023 42.1588 72.898 43.0411C73.295 44.8296 71.1605 46.4812 69.5393 46.5224C67.9282 46.5633 66.1206 45.1932 66.3538 43.4627C66.4115 43.0346 66.9837 43.0866 67.1788 43.355L67.2544 43.4579C67.7843 44.1691 68.4835 44.9053 69.4669 44.7319C69.8744 44.6602 70.2446 44.4058 70.4909 44.0783C70.7881 43.6831 70.7554 43.2112 70.9929 42.7923ZM60.7486 29.7078C60.967 29.6477 61.1873 29.6709 61.3808 29.7531C61.8127 29.8322 62.1735 30.1921 62.3003 30.6029C62.3103 30.6384 62.3215 30.6735 62.3338 30.7082L62.3531 30.7602L62.3013 30.6285C62.3252 30.7582 62.4309 30.8945 62.4689 31.0247C62.5157 31.1848 62.527 31.3666 62.5113 31.5427C62.6486 31.5441 62.7859 31.5487 62.923 31.5606L63.0554 31.5724C63.7961 31.6412 64.6092 31.7674 65.0484 32.4069C65.295 32.7662 65.0635 33.4132 64.6104 33.4824C63.913 33.589 63.3123 33.2034 62.6172 33.1262C61.9602 33.0531 61.2726 33.095 60.6241 33.2136C59.2851 33.4581 58.0548 34.0003 56.75 34.3406L56.5723 34.3857L56.5726 34.3848C56.349 34.4388 56.0951 34.1282 56.3164 33.9465C57.3617 33.0885 58.7 32.3931 60.0184 31.9697C59.8264 31.6644 59.767 31.2624 59.8983 30.9346C59.9186 30.8666 59.9438 30.8006 59.9704 30.7348L60.0259 30.5994C60.0313 30.5355 60.0436 30.4724 60.0613 30.4106L60.0642 30.3917L60.0658 30.3928C60.164 30.0741 60.4204 29.7982 60.7486 29.7078ZM74.085 29.757C74.3709 29.4713 74.7725 29.5135 75.0709 29.7384L75.1105 29.7694C75.3918 29.8942 75.6245 30.1669 75.7773 30.4197C75.936 30.6822 76.0414 30.9496 76.0456 31.2386C76.7376 31.2409 77.4005 31.4483 77.9086 32.0066C78.0727 32.1867 78.1847 32.4646 78.0944 32.7089L78.0407 32.8542C77.87 33.3156 77.103 33.5811 76.8423 33.0386L76.8303 33.0121C76.5533 32.3679 75.49 32.4355 74.9248 32.5013C74.5309 32.5475 74.1419 32.6453 73.7615 32.7549C73.6274 32.7935 73.4946 32.8355 73.3619 32.8782L73.2292 32.9212C73.1585 32.944 72.7898 33.1441 73.0192 33.0967C73.0808 33.084 73.1272 33.1737 73.0643 33.2038C72.7909 33.3344 72.4993 33.0744 72.5176 32.781C72.5492 32.2718 73.3585 31.9926 73.748 31.8169L73.7714 31.8063C73.9207 31.7373 74.0771 31.6712 74.2386 31.6098C74.1478 31.4749 74.0727 31.325 74.0103 31.164C73.9513 31.0121 73.9119 30.8644 73.8903 30.7028C73.869 30.6239 73.869 30.5449 73.8903 30.4658L73.8935 30.4432C73.8825 30.391 73.8773 30.337 73.878 30.2826L73.8758 30.2615H73.878C73.8856 30.0712 73.9613 29.8806 74.085 29.757ZM69.517 35.1804C70.6154 35.5195 72.4274 36.4432 71.855 37.869C71.0558 39.1785 68.9363 38.2161 67.9092 37.793C66.9864 37.4877 66.506 38.7797 67.3982 39.1692C74.7713 42.0836 74.7441 34.3919 69.7844 34.5049C69.2383 34.5173 69.2212 35.0677 69.517 35.1804ZM59.7622 25.1511L59.9496 25.0965C60.9231 24.8147 61.9169 24.3282 62.7813 25.0874C63.1207 25.3855 63.1906 26.005 62.9477 26.3769C62.3945 27.2241 61.574 27.0947 60.6805 27.1669C60.0002 27.2219 59.33 27.4215 58.695 27.6711C58.176 27.8751 57.6947 28.1624 57.2403 28.4827C56.7938 28.7977 56.4888 29.2901 56.0309 29.5737C55.8631 29.6776 55.6692 29.5706 55.6089 29.4021C55.3954 28.8042 55.7563 28.0594 56.0616 27.55C56.4344 26.9285 57.0007 26.4202 57.6096 26.0356C58.2763 25.6144 59.0136 25.3712 59.7622 25.1511ZM73.9479 24.5078C75.5935 24.5073 77.1769 25.4218 78.0973 26.7624C78.4101 27.2178 78.1809 27.8925 77.7319 28.1548C77.2283 28.4492 76.6898 28.2372 76.358 27.8154L76.3382 27.7898C75.8103 27.0875 75.1299 26.5343 74.3233 26.1742C73.9298 25.9984 73.4946 25.8559 73.0689 25.7835L72.9314 25.76C72.7385 25.7277 72.5149 25.6969 72.3405 25.7271C72.2471 25.7393 72.1613 25.7702 72.0823 25.8171C72.1203 25.9001 72.0221 26.0001 71.9314 25.9503C71.5225 25.7259 71.5727 25.3256 71.9104 25.0145C72.3883 24.5743 73.3308 24.5079 73.9479 24.5078Z" fill="black"/>
</svg>
